<svg xmlns="http://www.w3.org/2000/svg" viewBox="0 0 112.01 25.53"><defs><style>.cls-1{fill:#dd4add;}.cls-2{font-size:16px;font-family:Lato-Bold, Lato;font-weight:700;}.cls-2,.cls-5{fill:#848b92;}.cls-3{letter-spacing:-0.03em;}.cls-4{fill:#4d4d4d;opacity:0.5;}.cls-6{fill:#37383c;}.cls-7{fill:#cfcfd2;}.cls-8{fill:#402e28;}.cls-9{fill:none;stroke:#cfcfd2;stroke-miterlimit:10;stroke-width:0.49px;stroke-dasharray:2.94 3.43;}</style></defs><title>Asset 6</title><g id="Layer_2" data-name="Layer 2"><g id="Layer_1-2" data-name="Layer 1"><polygon class="cls-1" points="110.31 25.53 100.67 25.53 102.37 15.89 112.01 15.89 110.31 25.53"/><text class="cls-2" transform="translate(39.59 18.11)">SHIF<tspan class="cls-3" x="34.9" y="0">T</tspan></text><rect class="cls-1" x="40.5" y="22.86" width="57.04" height="2.67"/><polygon class="cls-4" points="33.61 25.51 12.51 25.51 0 1.47 21.1 1.23 33.61 25.51"/><polygon class="cls-5" points="31.42 23.55 29.95 23.55 22.35 0 23.82 0 31.42 23.55"/><polygon class="cls-5" points="15.23 23.55 13.76 23.55 6.16 0 7.63 0 15.23 23.55"/><polygon class="cls-6" points="30.08 23.55 29.21 23.55 21.61 0 22.48 0 30.08 23.55"/><polygon class="cls-6" points="16.1 23.55 15.23 23.55 7.63 0 8.49 0 16.1 23.55"/><polygon class="cls-6" points="28.5 23.55 16.7 23.55 9.1 0 20.87 0 28.5 23.55"/><polygon class="cls-7" points="29.34 23.55 28.48 23.55 20.87 0 21.74 0 29.34 23.55"/><polygon class="cls-7" points="16.83 23.55 15.97 23.55 8.36 0 9.23 0 16.83 23.55"/><rect class="cls-8" x="14.25" y="23.55" width="17.17" height="1.96"/><polygon class="cls-8" points="6.16 1.96 14.25 25.51 14.25 23.55 6.16 0 6.16 1.96"/><line class="cls-9" x1="13.51" y1="1.47" x2="20.14" y2="22.08"/><line class="cls-9" x1="17.69" y1="1.47" x2="24.31" y2="22.08"/></g></g></svg>