<?xml version="1.0" encoding="utf-8"?>
<!-- Generator: Adobe Illustrator 23.0.0, SVG Export Plug-In . SVG Version: 6.00 Build 0)  -->
<svg version="1.1" id="banner_x5F_logo" xmlns="http://www.w3.org/2000/svg" xmlns:xlink="http://www.w3.org/1999/xlink" x="0px"
	 y="0px" viewBox="0 0 274.8 51.8" style="enable-background:new 0 0 274.8 51.8;" xml:space="preserve">
<style type="text/css">
	.st0{fill:#4D4D4D;}
	.st1{fill:#2CB51D;}
	.st2{fill:#DD4ADD;}
	.st3{fill:#E8800F;}
	.st4{fill:#05A6DD;}
	.st5{fill:url(#SVGID_1_);}
	.st6{fill:url(#SVGID_2_);}
	.st7{fill:url(#SVGID_3_);}
	.st8{fill:url(#SVGID_4_);}
</style>
<title>Asset 1</title>
<path class="st0" d="M174,11.2h-44.8l-1.6,9.1h30c2.7-0.1,5.3,1,7,3.1c1.7,2.1,2.4,4.9,1.8,7.5l-1.8,10.2c-0.5,3-2.1,5.6-4.5,7.5
	c-2.2,2-5.1,3.1-8.1,3.1h-31.5l2-11.2h30.8l1.6-9.1h-29.9c-2.7,0.1-5.3-1-7-3.1c-1.7-2.1-2.4-4.9-1.8-7.6l1.8-10.2
	c0.5-3,2.1-5.7,4.5-7.6c2.2-2,5.1-3.1,8.1-3.1H176L174,11.2z"/>
<path class="st0" d="M188.8,10.1l-5.4,30.5h29.4L220,0h11.3L224,41.2c-0.5,3-2.1,5.6-4.5,7.5c-2.2,2-5.1,3.1-8.1,3.1h-30.5
	c-2.7,0.1-5.3-1-7-3.1c-1.7-2.1-2.4-4.9-1.8-7.6l4.3-24.6L188.8,10.1z"/>
<rect x="59.4" y="0.1" class="st1" width="11.2" height="11.2"/>
<path class="st0" d="M69.8,14.3H58.7l-4.7,26.9c-0.6,2.7,0,5.4,1.8,7.6c1.7,2.1,4.3,3.2,7,3.1h40.5l2-11.2h-40L69.8,14.3z"/>
<polygon class="st0" points="73.6,0 73.6,11.2 110.9,11.2 112.9,0 "/>
<polygon class="st2" points="117.5,51.8 106.3,51.8 108.3,40.6 119.5,40.6 "/>
<polygon class="st3" points="268.3,0.1 261.8,11.3 274.8,11.3 "/>
<polygon class="st0" points="264.9,0.1 221.8,0.1 220.2,11.2 258.4,11.2 "/>
<path class="st0" d="M263.1,14.4l-1.6,9.1h-29.4c0,0-1.9,11.3-2,11.3l14.9-0.1l11.3,17.1h11.5l0.7-3.8l-8.9-13.2h0.5
	c3,0,5.9-1.1,8.1-3.1c2.4-1.9,4-4.6,4.5-7.5l1.7-9.7L263.1,14.4z"/>
<polygon class="st4" points="189.2,6.5 179.1,0 176.8,13 "/>
<linearGradient id="SVGID_1_" gradientUnits="userSpaceOnUse" x1="4.0304" y1="65.7493" x2="6.9504" y2="27.8293" gradientTransform="matrix(1 0 0 -1 0 75.89)">
	<stop  offset="0" style="stop-color:#05A6DD"/>
	<stop  offset="1" style="stop-color:#0595E8"/>
</linearGradient>
<path class="st5" d="M4.2,49.6c0,0,0.3-24.9-4.2-39.6h8C9.8,25,4.2,49.6,4.2,49.6z"/>
<linearGradient id="SVGID_2_" gradientUnits="userSpaceOnUse" x1="24.5625" y1="88.5295" x2="14.9525" y2="44.5295" gradientTransform="matrix(1 0 0 -1 0 75.89)">
	<stop  offset="0" style="stop-color:#2CB51D"/>
	<stop  offset="1" style="stop-color:#02C45D"/>
</linearGradient>
<polygon class="st6" points="6.3,49.6 15.3,49.6 26,2.1 17,2.1 "/>
<linearGradient id="SVGID_3_" gradientUnits="userSpaceOnUse" x1="44.9046" y1="70.148" x2="25.0846" y2="25.538" gradientTransform="matrix(1 0 0 -1 0 75.89)">
	<stop  offset="0" style="stop-color:#FFB700"/>
	<stop  offset="0.23" style="stop-color:#FAAA04"/>
	<stop  offset="1" style="stop-color:#E8800F"/>
</linearGradient>
<path class="st7" d="M29.7,49.6h-2.8C30.5,23,33.3,22.4,42.1,6h5.5C35.8,26.1,34.3,28.7,29.7,49.6z"/>
<linearGradient id="SVGID_4_" gradientUnits="userSpaceOnUse" x1="38.2603" y1="73.0899" x2="18.4503" y2="28.4899" gradientTransform="matrix(1 0 0 -1 0 75.89)">
	<stop  offset="0" style="stop-color:#FFB700"/>
	<stop  offset="0.23" style="stop-color:#FAAA04"/>
	<stop  offset="1" style="stop-color:#E8800F"/>
</linearGradient>
<polygon class="st8" points="18.3,49.6 27,49.6 37.7,2.1 29,2.1 "/>
</svg>
