<?xml version="1.0" standalone="no"?><!DOCTYPE svg PUBLIC "-//W3C//DTD SVG 1.1//EN" "http://www.w3.org/Graphics/SVG/1.1/DTD/svg11.dtd"><svg t="1579226510748" class="icon" viewBox="0 0 1024 1024" version="1.1" xmlns="http://www.w3.org/2000/svg" p-id="1143" xmlns:xlink="http://www.w3.org/1999/xlink" width="200" height="200"><defs><style type="text/css"></style></defs><path d="M511.5 46.5c-63 0-124 12.3-181.2 36.3-55.6 23.5-105.3 57.2-148 99.9s-75.9 93-99.4 148C58.8 388 46.5 448.9 46.5 512c0 63 12.3 124 36.3 181.2 23.5 55.6 57.2 105.3 99.9 148s92.5 76.4 148 99.9c57.2 24.1 118.1 36.3 181.2 36.3s124-12.3 181.2-36.3c55.6-23.5 105.3-57.2 148-99.9 42.7-42.8 76.4-92.5 99.9-148 24-57.2 36.3-118.1 36.3-181.2 0-63.1-12.3-124-36.3-181.2-23.5-55.6-57.2-105.3-99.9-148-42.8-42.8-92.4-76.4-148-99.9-57.7-24.1-118.6-36.4-181.6-36.4z m0.5 977.5c-69 0-136.4-13.4-199.1-40.1-61.2-25.7-115.8-62.7-162.6-109.5S66.4 772.6 40.7 711.9C13.4 648 0 581.2 0 512.3s13.4-136.3 40.1-199c25.7-61.2 62.8-115.7 109.6-162.5S251.6 66.5 312.8 40.2C376.1 13.4 443 0 512 0s136.4 13.4 199.7 40.1c61.2 25.7 115.8 62.8 162.6 109.6s83.9 101.8 109.6 162.5c26.8 63.3 40.1 130.1 40.1 199.6s-13.4 136.3-40.1 199.6c-25.7 61.2-62.8 115.7-109.6 162.5s-101.9 83.8-162.6 109.6c-63.3 26.6-130.2 40.5-199.7 40.5z m214.7-547.2c24 15.6 24 53.8 0.5 70L426.6 739.5c-24 15.1-54.2-4-54.2-34.7V319.5c0-30.7 30.2-50.3 54.2-34.7l300.1 192z" p-id="1144" fill="#ffffff"></path></svg>