<svg xmlns="http://www.w3.org/2000/svg" xmlns:xlink="http://www.w3.org/1999/xlink" viewBox="0 0 47.57 47.57"><defs><style>.cls-1{fill:url(#linear-gradient);}.cls-2{fill:url(#linear-gradient-2);}.cls-3{fill:url(#linear-gradient-3);}.cls-4{fill:url(#linear-gradient-4);}</style><linearGradient id="linear-gradient" x1="4.04" y1="8.07" x2="6.96" y2="45.99" gradientUnits="userSpaceOnUse"><stop offset="0" stop-color="#05a6dd"/><stop offset="1" stop-color="#0595e8"/></linearGradient><linearGradient id="linear-gradient-2" x1="24.56" y1="-14.71" x2="14.95" y2="29.29" gradientUnits="userSpaceOnUse"><stop offset="0" stop-color="#2cb51d"/><stop offset="1" stop-color="#02c45d"/></linearGradient><linearGradient id="linear-gradient-3" x1="44.9" y1="3.67" x2="25.08" y2="48.28" gradientUnits="userSpaceOnUse"><stop offset="0" stop-color="#ffb700"/><stop offset="0.23" stop-color="#faaa04"/><stop offset="1" stop-color="#e8800f"/></linearGradient><linearGradient id="linear-gradient-4" x1="38.26" y1="0.72" x2="18.45" y2="45.33" xlink:href="#linear-gradient-3"/></defs><title>Asset 5</title><g id="Layer_2" data-name="Layer 2"><g id="Layer_1-2" data-name="Layer 1"><path class="cls-1" d="M4.16,47.53S4.41,22.6,0,7.9H8C9.8,23,4.16,47.53,4.16,47.53Z"/><polygon class="cls-2" points="6.27 47.57 15.31 47.57 26.04 0 17 0 6.27 47.57"/><path class="cls-3" d="M29.69,47.57H26.93C30.46,21,33.27,20.35,42.11,3.88h5.46C35.8,24,34.28,26.65,29.69,47.57Z"/><polygon class="cls-4" points="18.31 47.57 27.01 47.57 37.73 0 29.03 0 18.31 47.57"/></g></g></svg>