<svg xmlns="http://www.w3.org/2000/svg" viewBox="0 0 221.01 51.84"><defs><style>.cls-1{fill:#4d4d4d;}.cls-2{fill:#2cb51d;}.cls-3{fill:#dd4add;}.cls-4{fill:#e8800f;}.cls-5{fill:#05a6dd;}</style></defs><title>Asset 6</title><g id="Layer_2" data-name="Layer 2"><g id="Layer_1-2" data-name="Layer 1"><path class="cls-1" d="M120.25,11.23H75.45l-1.6,9.07h30a8.57,8.57,0,0,1,7,3.14,8.83,8.83,0,0,1,1.8,7.52l-1.8,10.22a12.56,12.56,0,0,1-4.46,7.53,12.2,12.2,0,0,1-8.08,3.13H66.8l2-11.23H99.65l1.6-9.07H71.37a8.63,8.63,0,0,1-7-3.1,8.79,8.79,0,0,1-1.8-7.56l1.8-10.22A12.47,12.47,0,0,1,68.86,3.1,12.22,12.22,0,0,1,76.93,0h45.32Z"/><path class="cls-1" d="M135.05,10.1l-5.38,30.51h29.38L166.21,0h11.3l-7.26,41.18a12.56,12.56,0,0,1-4.46,7.53,12.2,12.2,0,0,1-8.08,3.13H127.19a8.59,8.59,0,0,1-7-3.1,8.87,8.87,0,0,1-1.76-7.56l4.34-24.6Z"/><rect class="cls-2" x="5.62" y="0.07" width="11.23" height="11.23"/><path class="cls-1" d="M16.09,14.3H4.93L.19,41.18A8.87,8.87,0,0,0,2,48.74a8.58,8.58,0,0,0,7,3.1H49.47l2-11.23h-40Z"/><polygon class="cls-1" points="19.9 0 19.9 11.23 57.16 11.23 59.14 0 19.9 0"/><polygon class="cls-3" points="63.77 51.84 52.54 51.84 54.52 40.61 65.75 40.61 63.77 51.84"/><polygon class="cls-4" points="214.53 0.07 208.04 11.3 221.01 11.3 214.53 0.07"/><polygon class="cls-1" points="211.11 0.07 168.08 0.07 166.45 11.23 204.67 11.23 211.11 0.07"/><path class="cls-1" d="M209.32,14.41l-1.61,9.13H178.33s-1.94,11.31-2,11.31l14.85-.07,11.32,17.06H214L214.7,48l-8.9-13.24h.51a12.35,12.35,0,0,0,8.11-3.14,12.41,12.41,0,0,0,4.49-7.52l1.71-9.71Z"/><polygon class="cls-5" points="135.42 6.48 125.33 0 123.05 12.97 135.42 6.48"/></g></g></svg>