<svg xmlns="http://www.w3.org/2000/svg" viewBox="0 0 112.01 26.2"><defs><style>.cls-1{fill:#05a6dd;}.cls-2{font-size:16px;font-family:Lato-Bold, Lato;font-weight:700;}.cls-2,.cls-4{fill:#848b92;}.cls-3{fill:#4d4d4d;opacity:0.5;}.cls-5{fill:#37383c;}.cls-6{fill:#cfcfd2;}.cls-7{fill:#402e28;}.cls-8,.cls-9{fill:none;stroke:#cfcfd2;stroke-miterlimit:10;stroke-width:0.49px;}.cls-8{stroke-dasharray:2.94 3.43;}.cls-9{stroke-dasharray:1.47 1.47;}</style></defs><title>Asset 7</title><g id="Layer_2" data-name="Layer 2"><g id="Layer_1-2" data-name="Layer 1"><polygon class="cls-1" points="112.01 19.65 100.67 13.1 100.67 26.2 112.01 19.65"/><text class="cls-2" transform="translate(39.59 18.11)">TRANS</text><rect class="cls-1" x="40.5" y="22.56" width="57.04" height="2.67"/><polygon class="cls-3" points="33.61 25.51 12.51 25.51 0 1.47 21.1 1.23 33.61 25.51"/><polygon class="cls-4" points="16.66 23.55 15.19 23.55 2.92 0 4.39 0 16.66 23.55"/><polygon class="cls-4" points="32.36 23.55 30.88 23.55 23.28 0 24.75 0 32.36 23.55"/><polygon class="cls-5" points="17.28 23.55 16.41 23.55 4.15 0 5.01 0 17.28 23.55"/><polygon class="cls-5" points="31.02 23.55 30.15 23.55 22.54 0 23.41 0 31.02 23.55"/><polygon class="cls-5" points="29.43 23.55 17.88 23.55 5.62 0 21.81 0 29.43 23.55"/><polygon class="cls-6" points="18.01 23.55 17.15 23.55 4.88 0 5.75 0 18.01 23.55"/><polygon class="cls-6" points="30.28 23.55 29.41 23.55 21.81 0 22.67 0 30.28 23.55"/><rect class="cls-7" x="15.18" y="23.55" width="17.17" height="1.96"/><polygon class="cls-7" points="2.92 1.96 15.19 25.51 15.19 23.55 2.92 0 2.92 1.96"/><line class="cls-8" x1="14.12" y1="1.47" x2="24.42" y2="21.34"/><line class="cls-8" x1="10.36" y1="1.47" x2="20.66" y2="21.34"/><line class="cls-9" x1="17.9" y1="1.47" x2="24.26" y2="13.49"/></g></g></svg>