<svg xmlns="http://www.w3.org/2000/svg" viewBox="0 0 112.01 25.51"><defs><style>.cls-1{fill:#2cb51d;}.cls-2{font-size:16px;font-family:Lato-Bold, Lato;font-weight:700;}.cls-2,.cls-5{fill:#848b92;}.cls-3{letter-spacing:-0.01em;}.cls-4{fill:#4d4d4d;opacity:0.5;}.cls-6{fill:#37383c;}.cls-7{fill:#cfcfd2;}.cls-8{fill:#402e28;}.cls-9{fill:none;stroke:#cfcfd2;stroke-miterlimit:10;stroke-width:0.49px;stroke-dasharray:2.94 3.43;}</style></defs><title>Asset 5</title><g id="Layer_2" data-name="Layer 2"><g id="Layer_1-2" data-name="Layer 1"><rect class="cls-1" x="100.67" y="13.27" width="11.34" height="11.34"/><text class="cls-2" transform="translate(39.59 17.34)"><tspan class="cls-3">B</tspan><tspan x="10.35" y="0">ASE</tspan></text><rect class="cls-1" x="40.5" y="21.81" width="57.04" height="2.67"/><polygon class="cls-4" points="33.61 25.51 12.51 25.51 0 1.47 21.1 1.23 33.61 25.51"/><polygon class="cls-5" points="16.02 23.55 14.55 23.55 2.29 0 3.76 0 16.02 23.55"/><polygon class="cls-5" points="31.72 23.55 30.25 23.55 17.99 0 19.46 0 31.72 23.55"/><polygon class="cls-6" points="16.64 23.55 15.78 23.55 3.51 0 4.38 0 16.64 23.55"/><polygon class="cls-6" points="30.38 23.55 29.52 23.55 17.25 0 18.12 0 30.38 23.55"/><polygon class="cls-6" points="28.8 23.55 17.25 23.55 4.99 0 16.53 0 28.8 23.55"/><polygon class="cls-7" points="17.38 23.55 16.51 23.55 4.25 0 5.12 0 17.38 23.55"/><polygon class="cls-7" points="29.64 23.55 28.78 23.55 16.51 0 17.38 0 29.64 23.55"/><rect class="cls-8" x="14.55" y="23.55" width="17.17" height="1.96"/><polygon class="cls-8" points="2.29 1.96 14.55 25.51 14.55 23.55 2.29 0 2.29 1.96"/><line class="cls-9" x1="13.49" y1="1.47" x2="23.79" y2="21.34"/><line class="cls-9" x1="9.73" y1="1.47" x2="20.03" y2="21.34"/></g></g></svg>