<svg xmlns="http://www.w3.org/2000/svg" viewBox="0 0 110.8 25.74"><defs><style>.cls-1{fill:#e8800f;}.cls-2{font-size:16px;font-family:Lato-Bold, Lato;font-weight:700;}.cls-2,.cls-5{fill:#848b92;}.cls-3{letter-spacing:-0.03em;}.cls-4{fill:#4d4d4d;opacity:0.5;}.cls-6{fill:#37383c;}.cls-7{fill:#cfcfd2;}.cls-8{fill:#402e28;}.cls-9{fill:none;stroke:#cfcfd2;stroke-miterlimit:10;stroke-width:0.49px;stroke-dasharray:2.94 3.43;}</style></defs><title>Asset 8</title><g id="Layer_2" data-name="Layer 2"><g id="Layer_1-2" data-name="Layer 1"><polygon class="cls-1" points="105.13 15.91 99.46 25.73 110.8 25.73 105.13 15.91"/><text class="cls-2" transform="translate(38.38 18.39)">RAM<tspan class="cls-3" x="36.52" y="0">P</tspan></text><rect class="cls-1" x="39.29" y="23.06" width="57.04" height="2.67"/><polygon class="cls-4" points="33.61 25.74 12.51 25.74 0 1.7 21.1 1.45 33.61 25.74"/><polygon class="cls-5" points="16.02 23.55 14.55 23.55 2.29 0 3.76 0 16.02 23.55"/><polygon class="cls-5" points="31.72 23.55 30.25 23.55 22.65 0 24.12 0 31.72 23.55"/><polygon class="cls-6" points="16.64 23.55 15.78 23.55 3.51 0 4.38 0 16.64 23.55"/><polygon class="cls-6" points="30.38 23.55 29.52 23.55 21.91 0 22.78 0 30.38 23.55"/><polygon class="cls-6" points="28.8 23.55 17.25 23.55 4.99 0 21.18 0 28.8 23.55"/><polygon class="cls-7" points="17.38 23.55 16.51 23.55 4.25 0 5.12 0 17.38 23.55"/><polygon class="cls-7" points="29.64 23.55 28.78 23.55 21.18 0 22.04 0 29.64 23.55"/><rect class="cls-8" x="14.55" y="23.55" width="17.17" height="1.96"/><polygon class="cls-8" points="2.29 1.96 14.55 25.51 14.55 23.55 2.29 0 2.29 1.96"/><line class="cls-9" x1="9.73" y1="1.47" x2="20.03" y2="21.34"/><line class="cls-9" x1="22.36" y1="18.2" x2="24.89" y2="23.32"/><polygon class="cls-7" points="21.41 14.9 20.55 14.9 12.91 0 13.78 0 21.41 14.9"/><polygon class="cls-7" points="21.63 14.9 20.76 14.9 15.95 0 16.82 0 21.63 14.9"/></g></g></svg>